<svg xmlns="http://www.w3.org/2000/svg" width="563.32916" height="500">
  <title>T امامك تقاطع - gpsarab.com</title>
  <path style="opacity:1;fill:#ff0000;fill-opacity:1;stroke-width:0.987593" d="m 281.66429,0 c -16.2521,0 -31.28414,8.67079 -39.41074,22.74564 L 6.09495,431.76344 c -8.1266,14.07514 -8.1266,31.41486 0,45.49104 C 14.22035,491.32956 29.25355,500 45.50615,500 h 472.31674 c 16.2521,0 31.2858,-8.67044 39.4113,-22.74552 8.1266,-14.07618 8.1266,-31.4159 0,-45.49104 L 321.07549,22.74564 C 312.94889,8.67079 297.91689,0 281.66429,0 Z" fill="#ce252c"/>
  <path style="opacity:1;fill:#ffffff;stroke-width:0.987593" d="m 57.63625,447.50943 224.02804,-388.0265 224.028,388.0265 z" fill="#ffd100"/>
<path style="opacity:0.98999999000000005;fill:#000000;fill-opacity:1;stroke:none;" d="m 210,230 0,44 140,0 0,-44 z"/>
<path style="opacity:0.98999999000000005;fill:#000000;fill-opacity:1;stroke:none" d="m 261,266 0,155 44,0 0,-155 z"/>
</svg>