<?xml version="1.0" encoding="UTF-8" standalone="no"?>
<svg xmlns="http://www.w3.org/2000/svg" width="563.32904" height="500.00003">
  <title>وجود طلاب مدارس - gpsarab.com</title>
  <g transform="matrix(1.33333,0,0,-1.33333,-1195.1751,-841.80314)">
    <path d="m 1107.6325,-631.35393 c -12.1893,0 -23.4635,-6.50306 -29.5585,-17.05917 L 900.95484,-955.17725 c -6.09505,-10.5564 -6.09505,-23.56124 0,-34.11845 6.09405,-10.55628 17.36908,-17.0592 29.55847,-17.0592 h 354.23819 c 12.1894,0 23.4644,6.50292 29.5585,17.0592 6.0952,10.55721 6.0952,23.56199 0,34.11845 l -177.1192,306.76415 c -6.095,10.55611 -17.3693,17.05917 -29.5583,17.05917 z" fill="#ce252c" style="opacity:1;fill:#ff0000;fill-opacity:1;stroke-width:0.740696"/>
    <path d="m 939.61106,-966.98678 168.02124,291.02055 168.0212,-291.02055 z" fill="#ffd100" style="opacity:1;fill:#ffffff;fill-opacity:1;stroke-width:0.740696"/>
    <path style="opacity:1;fill:#000000;fill-rule:evenodd;stroke-width:3.82268" d="m 1080.2458,-760.69755 a 16.701281,18.809017 0 0 1 -16.6992,-18.80778 16.701281,18.809017 0 0 1 16.6992,-18.80772 16.701281,18.809017 0 0 1 16.6992,18.80772 16.701281,18.809017 0 0 1 -16.6992,18.80778 z m 76.3319,-34.51618 a 14.536543,17.180313 6.081054 0 1 -1.2787,-0.0676 14.536543,17.180313 6.081054 0 1 -12.6345,-18.6214 14.536543,17.180313 6.081054 0 1 16.2758,-15.54758 14.536543,17.180313 6.081054 0 1 12.6344,18.62146 14.536543,17.180313 6.081054 0 1 -14.997,15.61533 z m -75.5782,-5.61436 c -5.2081,0.15262 -10.6698,-0.70342 -13.151,-1.32105 -1.3607,-0.47981 -2.6915,-1.03172 -3.9885,-1.6597 -1.4055,-0.68134 -2.8147,-1.34903 -4.2341,-1.99851 -1.2067,-0.55093 -2.3565,-1.21544 -3.4381,-1.98153 -1.1572,-0.81938 -2.1133,-1.88931 -2.7945,-3.13325 l -17.5545,-32.09426 -16.8177,-12.01631 c -2.1538,-1.68629 -4.4038,-3.24656 -6.7406,-4.66594 -1.2048,-0.73256 -2.2202,-1.72699 -2.9808,-2.913 -0.4833,-0.7569 -0.4301,-1.74179 0.1352,-2.43885 1.4839,-1.82532 3.2913,-3.3564 5.335,-4.522 1.1235,-0.64058 2.3827,-1.01108 3.6752,-1.07548 1.5136,-0.0763 2.816,1.07103 2.9215,2.58279 l 0.1867,2.75218 c -0.1145,0.47461 0.1532,0.96477 0.6182,1.11774 l 20.857,6.90159 11.0256,13.98933 c -2.2976,-5.93699 -4.9073,-11.74501 -7.8162,-17.41047 -3.3726,-6.56786 -7.8159,-12.53457 -13.151,-17.63917 l -1.609,-1.54119 c 4.4402,-4.14155 9.5482,-7.49361 15.1157,-9.91622 l 1.4904,-0.64358 c -2.4132,-4.94511 -3.9203,-10.28973 -4.4458,-15.76766 -0.2266,-2.36763 -0.4093,-4.7308 -0.5504,-7.10479 -0.2358,-4.00865 -0.8482,-7.9928 -1.8206,-11.8893 -0.7755,-3.11048 -1.6644,-6.18962 -2.6759,-9.23026 -0.6206,-1.86272 -1.6856,-3.54901 -3.0994,-4.91152 -1.8328,-1.76872 -3.9863,-3.17308 -6.3426,-4.14092 -3.871,-1.58836 -7.9634,-2.56828 -12.1348,-2.91305 -0.7765,-0.0624 -1.534,-0.25089 -2.2526,-0.55035 -0.838,-0.3509 -1.6376,-0.79371 -2.3711,-1.32949 -0.7278,-0.53126 -1.2303,-1.31805 -1.4057,-2.20177 l -0.466,-2.37104 33.1697,-7.01166 c 2.026,1.74103 3.1599,4.30099 3.074,6.96928 -0.069,2.10639 -0.1717,4.21382 -0.2965,6.31726 -0.1139,1.91556 0.4382,3.81199 1.5496,5.37729 2.4898,3.50791 4.8912,7.0782 7.2064,10.70375 2.5682,4.0223 4.4235,8.45718 5.4873,13.10867 0.6812,2.97821 1.0286,6.02249 1.0332,9.07787 0,2.04835 0.2775,4.08479 0.8129,6.06313 0.4561,1.68728 1.3006,3.24176 2.4727,4.53894 l 1.4057,1.55813 c 4.5486,-1.03675 9.2086,-1.50922 13.8708,-1.40569 l 1.8376,0.0405 c -0.062,-3.80927 0.6583,-7.58738 2.1086,-11.11015 1.9765,-4.80139 4.2801,-9.4682 6.8931,-13.95552 1.5855,-2.72142 2.6594,-5.70881 3.1755,-8.81536 0.3943,-2.37595 0.8645,-4.73288 1.4057,-7.07935 0.3174,-1.37655 0.2798,-2.81797 -0.1098,-4.1748 -0.4977,-1.73433 -1.5969,-3.23228 -3.0993,-4.23411 -1.8198,-1.2137 -3.6777,-2.36722 -5.5721,-3.46346 -2.1323,-1.23503 -4.0692,-2.77876 -5.7499,-4.58125 -0.6722,-0.71961 -1.0415,-1.67363 -1.0415,-2.65899 v -1.32105 h 32.3737 c 0.8772,3.2935 0.6219,6.79268 -0.7198,9.92472 l -2.5743,6.01237 c -0.5619,1.05236 -0.8994,2.20623 -0.9993,3.39571 l -0.796,9.5182 -0.1867,4.78451 -0.035,4.09855 c 0.1428,1.91845 0,3.85008 -0.4405,5.72448 -0.267,1.15116 -0.5179,2.30445 -0.7451,3.46346 -0.3371,1.70693 -0.9614,3.34703 -1.8461,4.84382 -1.7404,2.94983 -2.7376,6.27489 -2.9131,9.69603 l -0.1439,2.69286 c 6.6874,1.74121 13.0627,4.52148 18.8925,8.23103 l 1.973,1.2533 -4.9115,8.2649 -3.4042,6.94385 -5.6144,13.86239 -3.2009,9.9331 -3.8361,15.00556 16.9278,-10.25493 c 0.47,-0.41969 0.776,-0.99969 0.8553,-1.62588 l 1.0755,-8.40041 0.3977,-4.87764 0.2624,-6.83384 c 0.218,-1.49309 0.058,-3.01688 -0.4827,-4.42881 -0.5963,-1.57616 -0.9961,-3.21944 -1.1855,-4.89458 -0.1058,-0.93223 0.1468,-1.86919 0.7029,-2.62516 1.3438,-1.82625 3.1352,-3.27541 5.1994,-4.20862 0.5237,-0.23702 1.1294,-0.21216 1.6259,0.0763 0.3029,0.17689 0.6619,0.23991 1.0077,0.17747 0.3405,-0.0619 0.6802,-0.0809 1.0247,-0.0676 0.4908,0.0231 0.9878,-0.0717 1.4395,-0.26246 3.7375,-1.5883 7.7518,-2.40491 11.8131,-2.40491 h 1.8884 l 6.2325,13.24417 c 0.7942,-9.60451 0.6607,-19.26233 -0.389,-28.8425 -0.3521,-3.20835 -1.1065,-6.36195 -2.2441,-9.3827 l -1.3549,-3.6159 -2.4135,-7.18949 -3.709,-13.43049 -2.0238,-7.0031 c -0.9034,-1.50327 -2.1397,-2.77831 -3.616,-3.72603 -0.9855,-0.63289 -2.0432,-1.14866 -3.1417,-1.54963 -1.2085,-0.43877 -2.4264,-0.85742 -3.6497,-1.2533 l -3.8785,-1.2533 c -1.0125,-0.43761 -1.7088,-1.37718 -1.8375,-2.47272 l -0.3301,-2.81137 25.3536,-4.58126 6.6729,21.58527 3.0232,8.66292 1.2533,3.03162 5.0639,10.365 5.9277,10.99164 5.4366,-14.12484 c 0.977,-2.24374 2.0341,-4.44835 3.1756,-6.61364 0.7781,-1.46442 1.7729,-2.80912 2.9469,-3.98004 l 8.6629,-8.63749 c 0.6861,-0.78926 1.3909,-1.56055 2.1086,-2.32028 0.5853,-0.61983 1.0823,-1.31648 1.4734,-2.07471 0.4763,-0.92223 0.8738,-1.88833 1.1855,-2.87912 0.3868,-1.2285 0.37,-2.54724 -0.046,-3.76834 -0.4313,-1.2744 -0.9238,-2.52296 -1.4734,-3.75141 -0.9015,-2.01591 -2.6275,-3.54924 -4.7338,-4.20867 -0.6688,-0.20985 -1.3118,-0.49831 -1.9138,-0.85528 -0.6149,-0.36478 -1.0265,-0.98727 -1.1347,-1.69364 l -0.4151,-2.69286 h 11.449 l 16.3012,15.13257 -18.4098,28.77475 -3.2856,5.38572 -0.3301,1.73601 -2.0409,9.5859 -2.5404,13.20185 -2.7691,22.02566 c 2.6606,-1.52107 4.9552,-3.61214 6.7152,-6.1225 l 3.6414,-5.1994 c 0.9135,-1.13387 1.5944,-2.43718 1.9984,-3.83604 l 4.3865,-15.22575 c 1.2972,-2.91248 3.6846,-5.20727 6.6476,-6.38501 1.6601,-0.66117 3.4798,-0.82875 5.2332,-0.48271 1.8301,0.36073 3.2014,1.88498 3.3704,3.74296 0.1693,1.85799 -0.9072,3.60746 -2.6421,4.29337 -0.7139,0.28037 -1.3766,0.68371 -1.9561,1.18555 -1.0107,0.87251 -1.6554,2.09228 -1.8037,3.42108 l -1.9961,17.90879 c -0.035,1.37365 -0.5203,2.70066 -1.3973,3.75984 l -10.0347,12.10094 -9.2726,10.40737 c -1.6713,1.887 -3.6529,3.47455 -5.86,4.69138 l -8.5612,4.72519 c -7.9561,5.84808 -13.9224,4.0978 -17.9102,0.86379 -1.3103,-1.27013 -2.5941,-2.56447 -3.8615,-3.87841 -2.8248,-2.93121 -4.9827,-6.44121 -6.3172,-10.2888 l -2.9469,-8.4851 -5.1402,-14.98012 -3.8022,-0.30466 c -0.3503,1.01062 -0.9949,1.89186 -1.8461,2.54042 l -0.2879,0.22025 c 1.7497,9.31611 2.5179,18.79945 2.2864,28.27511 l -0.1098,4.50506 c -0.075,1.21688 -0.5831,2.37451 -1.4311,3.25176 -1.2626,1.30654 -2.4892,2.64303 -3.6837,4.01392 -4.1966,4.81532 -8.8427,9.2195 -13.8708,13.15948 -2.4478,1.91955 -4.9074,3.82916 -7.3757,5.72448 -2.9303,2.25184 -6.224,3.9875 -9.7384,5.13171 l -5.1994,1.69352 c -2.2395,1.08988 -5.2756,1.54281 -8.4004,1.63438 z"/>
  </g>
</svg>